<svg width="48" height="48" viewBox="0 0 48 48" fill="none" xmlns="http://www.w3.org/2000/svg">
<rect width="47.3766" height="48" rx="23.6883" fill="#0D5CAB"/>
<path d="M10.2253 28.7109L11.7816 19.3367H15.8462C16.5603 19.3367 17.1446 19.4328 17.5993 19.6251C18.057 19.8173 18.3805 20.0889 18.5697 20.4398C18.7619 20.7908 18.8184 21.2042 18.739 21.6803C18.678 22.022 18.5468 22.3348 18.3454 22.6186C18.147 22.8994 17.8953 23.1374 17.5901 23.3327C17.288 23.5249 16.9509 23.6577 16.5786 23.7309L16.5603 23.8224C16.9631 23.8346 17.314 23.9353 17.613 24.1245C17.9121 24.3107 18.1318 24.57 18.2722 24.9027C18.4125 25.2322 18.4461 25.6167 18.3729 26.0561C18.2874 26.5688 18.0784 27.025 17.7458 27.4247C17.4132 27.8245 16.9814 28.1388 16.4504 28.3676C15.9194 28.5965 15.3152 28.7109 14.6378 28.7109H10.2253ZM13.1182 26.6786H14.3082C14.7294 26.6786 15.0604 26.5978 15.3015 26.436C15.5456 26.2743 15.6906 26.0378 15.7364 25.7266C15.773 25.5069 15.7547 25.3207 15.6814 25.1681C15.6082 25.0156 15.4846 24.8996 15.3107 24.8203C15.1367 24.7409 14.9186 24.7013 14.6561 24.7013H13.4294L13.1182 26.6786ZM13.7041 23.1267H14.7477C14.9674 23.1267 15.1688 23.0916 15.3519 23.0214C15.535 22.9512 15.686 22.849 15.805 22.7147C15.924 22.5805 15.9988 22.4187 16.0293 22.2295C16.0751 21.9366 16.0049 21.7138 15.8187 21.5613C15.6357 21.4087 15.3885 21.3324 15.0772 21.3324H13.997L13.7041 23.1267ZM28.1614 22.8521H25.6164C25.6348 22.6354 25.6225 22.4401 25.5798 22.2662C25.5371 22.0922 25.4639 21.9427 25.3601 21.8176C25.2564 21.6894 25.1206 21.5918 24.9527 21.5247C24.7849 21.4575 24.585 21.424 24.3531 21.424C23.9076 21.424 23.5094 21.5353 23.1585 21.7581C22.8075 21.9778 22.5161 22.2936 22.2842 22.7056C22.0523 23.1145 21.8875 23.6027 21.7899 24.1703C21.7044 24.7196 21.7014 25.1758 21.7807 25.5389C21.8631 25.902 22.0233 26.1736 22.2613 26.3537C22.5024 26.5337 22.8152 26.6237 23.1997 26.6237C23.456 26.6237 23.6909 26.5932 23.9046 26.5322C24.1212 26.4711 24.3135 26.3842 24.4813 26.2713C24.6522 26.1553 24.7971 26.018 24.9161 25.8593C25.0382 25.6976 25.1313 25.5191 25.1953 25.3238H27.7586C27.661 25.7205 27.487 26.1263 27.2368 26.5413C26.9866 26.9533 26.6631 27.3332 26.2664 27.6811C25.8697 28.0259 25.4028 28.3051 24.8658 28.5187C24.3287 28.7323 23.7245 28.8391 23.0532 28.8391C22.1744 28.8391 21.4161 28.6469 20.7783 28.2624C20.1436 27.8779 19.6828 27.3164 19.396 26.5779C19.1122 25.8395 19.0557 24.9393 19.2266 23.8774C19.3975 22.8521 19.7347 21.9931 20.2382 21.3004C20.7417 20.6077 21.3535 20.0859 22.0737 19.7349C22.7938 19.384 23.5597 19.2086 24.3714 19.2086C24.9848 19.2086 25.5341 19.2894 26.0192 19.4512C26.5075 19.6129 26.9179 19.8494 27.2505 20.1606C27.5862 20.4688 27.8334 20.8487 27.992 21.3004C28.1507 21.752 28.2072 22.2692 28.1614 22.8521ZM30.1137 28.7109H27.3673L32.0178 19.3367H35.4965L37.0345 28.7109H34.2881L33.3727 21.9183H33.2995L30.1137 28.7109ZM30.2235 25.0125H35.3867L35.0571 26.9167H29.894L30.2235 25.0125Z" fill="white"/>
</svg>
