<svg width="48" height="48" viewBox="0 0 48 48" fill="none" xmlns="http://www.w3.org/2000/svg">
<rect width="47.3766" height="48" rx="23.6883" fill="#04A7D3"/>
<path d="M28.5273 12C30.5663 12.0003 32.2187 13.6534 32.2188 15.6924H17.6777C16.9981 15.6924 16.4475 16.2433 16.4473 16.9229C16.4473 17.6026 16.998 18.1543 17.6777 18.1543H30.0898C33.7047 18.1543 36.6356 21.0844 36.6357 24.6992V29.4551C36.6355 33.0698 33.7047 36 30.0898 36H16.999C13.3842 36 10.4533 33.0698 10.4531 29.4551V18.5459C10.4531 14.9309 13.3841 12 16.999 12H28.5273ZM32.2715 23.6367C31.0666 23.6369 30.0898 24.6135 30.0898 25.8184C30.09 27.0231 31.0667 27.9998 32.2715 28C33.4764 28 34.453 27.0232 34.4531 25.8184C34.4531 24.6134 33.4765 23.6367 32.2715 23.6367Z" fill="white"/>
</svg>
