<svg width="48" height="48" viewBox="0 0 48 48" fill="none" xmlns="http://www.w3.org/2000/svg">
<rect width="47.3766" height="48" rx="23.6883" fill="#ED4D2B"/>
<path d="M32.1465 15.7334H12.9258V16.7998H34.1797C35.7863 16.7998 37.0887 18.1024 37.0889 19.709V33.0908C37.0889 34.6975 35.7863 36 34.1797 36H13.0889C11.4823 36 10.1797 34.6974 10.1797 33.0908V16.7734C10.1798 15.2759 11.317 14.0227 12.8076 13.8779L32.1465 12V15.7334ZM23.5234 20.0449C22.7762 20.0449 22.1019 20.1851 21.501 20.4658C20.9039 20.7426 20.43 21.1307 20.0781 21.6289C19.7302 22.1231 19.5557 22.6962 19.5557 23.3486C19.5557 24.1275 19.8189 24.7684 20.3447 25.2705C20.8705 25.7725 21.6099 26.1656 22.5625 26.4502L24.0156 26.8779C24.5178 27.0242 24.9593 27.192 25.3389 27.3818C25.7222 27.5716 26.0209 27.8073 26.2344 28.0879C26.4476 28.3645 26.5546 28.7083 26.5547 29.1191C26.5547 29.6054 26.4182 30.0327 26.1455 30.4004C25.8766 30.7641 25.5047 31.0493 25.0303 31.2549C24.5598 31.4565 24.0219 31.5566 23.417 31.5566C22.8715 31.5566 22.3773 31.4717 21.9346 31.3018C21.4917 31.1278 21.1313 30.8751 20.8545 30.543C20.5777 30.2109 20.4194 29.8055 20.3799 29.3271H19.2412C19.2847 29.9676 19.4812 30.5313 19.8291 31.0176C20.177 31.5037 20.655 31.8854 21.2637 32.1621C21.8726 32.4349 22.5906 32.5713 23.417 32.5713C24.2947 32.5713 25.0481 32.4206 25.6768 32.1201C26.3053 31.8157 26.788 31.4046 27.124 30.8867C27.46 30.3688 27.6279 29.7851 27.6279 29.1367C27.6279 28.6308 27.5287 28.1976 27.3311 27.8379C27.1374 27.4744 26.8787 27.1679 26.5547 26.9189C26.2345 26.666 25.8805 26.4561 25.4932 26.29C25.1057 26.124 24.7176 25.9876 24.3301 25.8809L23.0488 25.5137C22.7564 25.4307 22.4662 25.3275 22.1777 25.2051C21.893 25.0825 21.6318 24.9356 21.3945 24.7656C21.1614 24.5917 20.9753 24.3846 20.8369 24.1436C20.6985 23.9024 20.6289 23.6211 20.6289 23.3008C20.629 22.866 20.7501 22.4786 20.9912 22.1387C21.2363 21.7948 21.5721 21.5258 21.999 21.332C22.43 21.1383 22.9287 21.041 23.4941 21.041C24.2967 21.041 24.9634 21.2413 25.4932 21.6406C26.0228 22.0399 26.3215 22.5779 26.3887 23.2539H27.4619C27.4382 22.6371 27.2542 22.0869 26.9102 21.6045C26.5701 21.1183 26.1094 20.7367 25.5283 20.46C24.9471 20.1832 24.2786 20.0449 23.5234 20.0449Z" fill="white"/>
</svg>
