<svg width="16" height="16" viewBox="0 0 16 16" fill="none" xmlns="http://www.w3.org/2000/svg">
<path d="M10 14.0023V8.66894C10 8.49213 9.92976 8.32256 9.80474 8.19754C9.67971 8.07252 9.51014 8.00228 9.33333 8.00228H6.66667C6.48986 8.00228 6.32029 8.07252 6.19526 8.19754C6.07024 8.32256 6 8.49213 6 8.66894V14.0023M2 6.66892C1.99995 6.47497 2.04222 6.28334 2.12386 6.1074C2.20549 5.93146 2.32453 5.77545 2.47267 5.65026L7.13933 1.65092C7.37999 1.44753 7.6849 1.33594 8 1.33594C8.3151 1.33594 8.62001 1.44753 8.86067 1.65092L13.5273 5.65026C13.6755 5.77545 13.7945 5.93146 13.8761 6.1074C13.9578 6.28334 14 6.47497 14 6.66892V12.6689C14 13.0225 13.8595 13.3617 13.6095 13.6117C13.3594 13.8618 13.0203 14.0023 12.6667 14.0023H3.33333C2.97971 14.0023 2.64057 13.8618 2.39052 13.6117C2.14048 13.3617 2 13.0225 2 12.6689V6.66892Z" stroke="#444444" stroke-width="1.33" stroke-linecap="round" stroke-linejoin="round"/>
</svg>
