<svg width="16" height="16" viewBox="0 0 16 16" fill="none" xmlns="http://www.w3.org/2000/svg">
<path d="M6 2.15625C5.79312 2.15625 5.58907 2.20439 5.404 2.29687L2.36867 3.81487C2.25795 3.8702 2.16482 3.95526 2.0997 4.06052C2.03459 4.16578 2.00007 4.2871 2 4.41087V12.9195C1.99972 13.0333 2.02856 13.1452 2.08377 13.2447C2.13898 13.3442 2.21872 13.4279 2.31541 13.4878C2.41211 13.5477 2.52253 13.5819 2.63617 13.5872C2.74982 13.5924 2.8629 13.5684 2.96467 13.5175L5.404 12.2975C5.58907 12.2051 5.79312 12.1569 6 12.1569C6.20689 12.1569 6.41094 12.2051 6.596 12.2975L9.404 13.7015C9.58907 13.794 9.79312 13.8422 10 13.8422C10.2069 13.8422 10.4109 13.794 10.596 13.7015L13.6313 12.1835C13.7421 12.1282 13.8352 12.0432 13.9003 11.9379C13.9654 11.8326 13.9999 11.7113 14 11.5875V3.0782C14.0002 2.9645 13.9713 2.85264 13.916 2.75326C13.8607 2.65388 13.781 2.57029 13.6843 2.51043C13.5876 2.45056 13.4773 2.41642 13.3637 2.41125C13.2501 2.40608 13.1371 2.43004 13.0353 2.48087L10.596 3.70087C10.4109 3.79335 10.2069 3.84149 10 3.84149C9.79312 3.84149 9.58907 3.79335 9.404 3.70087L6.596 2.29687C6.41094 2.20439 6.20689 2.15625 6 2.15625ZM10 3.84149L10 13.8415M6 2.15625L6 12.1563" stroke="#36A16B" stroke-width="1.33" stroke-linecap="round" stroke-linejoin="round"/>
</svg>
