<svg width="140" height="30" viewBox="0 0 140 30" fill="none" xmlns="http://www.w3.org/2000/svg">
<path d="M22.423 13.3713C22.044 13.7526 21.7538 14.2128 21.573 14.719C21.3922 15.2253 21.3253 15.7652 21.377 16.3003L21.359 16.2823C21.4122 16.9122 21.3272 17.546 21.1101 18.1397C20.893 18.7333 20.549 19.2724 20.1021 19.7194C19.6551 20.1663 19.116 20.5104 18.5223 20.7274C17.9287 20.9445 17.2948 21.0295 16.665 20.9763L16.683 20.9943C15.9296 20.9242 15.1729 21.0881 14.516 21.4638C13.8592 21.8395 13.3342 22.4086 13.0127 23.0936C12.6912 23.7786 12.5887 24.546 12.7193 25.2914C12.85 26.0367 13.2073 26.7236 13.7426 27.2584C14.2779 27.7932 14.9651 28.1499 15.7105 28.2798C16.456 28.4097 17.2233 28.3066 17.908 27.9845C18.5927 27.6623 19.1613 27.1369 19.5364 26.4797C19.9115 25.8225 20.0748 25.0657 20.004 24.3123L20.023 24.3303C19.9698 23.7005 20.0547 23.0666 20.2718 22.4729C20.4889 21.8793 20.833 21.3402 21.2799 20.8932C21.7269 20.4463 22.266 20.1022 22.8596 19.8852C23.4533 19.6681 24.0871 19.5831 24.717 19.6363L24.698 19.6183C25.3134 19.6736 25.9329 19.5727 26.499 19.3249C27.065 19.0771 27.5594 18.6904 27.9362 18.2007C28.313 17.711 28.5602 17.134 28.6546 16.5234C28.7491 15.9127 28.6879 15.2881 28.4767 14.7073C28.2655 14.1266 27.9111 13.6086 27.4464 13.2013C26.9817 12.794 26.4217 12.5106 25.8183 12.3774C25.2149 12.2442 24.5876 12.2654 23.9946 12.4391C23.4016 12.6129 22.8621 12.9335 22.426 13.3713H22.423Z" fill="#212121" fill-opacity="0.8"/>
<path d="M15.0451 18.6353L15.0261 18.6173C15.5614 18.6712 16.102 18.6055 16.6089 18.4249C17.1157 18.2443 17.5761 17.9534 17.9567 17.5731C18.3372 17.1928 18.6286 16.7326 18.8095 16.2259C18.9905 15.7192 19.0566 15.1787 19.0031 14.6433L19.0221 14.6613C18.9689 14.0314 19.0539 13.3976 19.2709 12.8039C19.488 12.2103 19.8321 11.6712 20.279 11.2242C20.726 10.7773 21.2651 10.4332 21.8587 10.2162C22.4524 9.99902 23.0862 9.91409 23.7161 9.96727L23.6971 9.94926C24.4506 10.0201 25.2075 9.85662 25.8647 9.48136C26.522 9.1061 27.0474 8.53723 27.3694 7.85236C27.6914 7.1675 27.7943 6.39997 27.6641 5.65446C27.5339 4.90895 27.1769 4.22177 26.6417 3.68663C26.1066 3.1515 25.4194 2.79446 24.6739 2.66424C23.9284 2.53401 23.1609 2.63692 22.476 2.95894C21.7911 3.28095 21.2223 3.8064 20.847 4.46361C20.4717 5.12081 20.3083 5.87778 20.3791 6.63126L20.3611 6.61226C20.4144 7.24215 20.3296 7.87609 20.1126 8.46981C19.8956 9.06353 19.5515 9.60272 19.1046 10.0498C18.6576 10.4967 18.1184 10.8408 17.5247 11.0578C16.9309 11.2748 16.297 11.3596 15.6671 11.3063L15.6851 11.3253C15.1498 11.2714 14.6091 11.3371 14.1023 11.5177C13.5955 11.6982 13.1351 11.9892 12.7545 12.3695C12.3739 12.7498 12.0826 13.21 11.9016 13.7167C11.7207 14.2234 11.6546 14.7639 11.7081 15.2993L11.6901 15.2813C11.7431 15.9111 11.658 16.5449 11.4409 17.1385C11.2237 17.732 10.8797 18.2711 10.4328 18.718C9.98584 19.1649 9.4468 19.5089 8.85324 19.7261C8.25968 19.9432 7.62589 20.0283 6.99608 19.9753L7.01408 19.9933C6.2606 19.9225 5.50363 20.0859 4.84642 20.4612C4.18922 20.8365 3.66377 21.4053 3.34176 22.0902C3.01974 22.7751 2.91682 23.5426 3.04705 24.2881C3.17728 25.0336 3.53432 25.7208 4.06945 26.2559C4.60459 26.7911 5.29177 27.1481 6.03728 27.2783C6.78279 27.4085 7.55032 27.3056 8.23519 26.9836C8.92005 26.6616 9.48892 26.1362 9.86418 25.479C10.2395 24.8217 10.4029 24.0648 10.3321 23.3113L10.3511 23.3293C10.2979 22.6994 10.3829 22.0656 10.6 21.4719C10.817 20.8783 11.1611 20.3392 11.608 19.8922C12.055 19.4453 12.5941 19.1012 13.1877 18.8842C13.7814 18.6671 14.4152 18.5821 15.0451 18.6353Z" fill="#212121" fill-opacity="0.8"/>
<path d="M8.34021 16.6309C8.71923 16.2497 9.00941 15.7895 9.19005 15.2832C9.37069 14.7769 9.43733 14.2369 9.38521 13.7019L9.4042 13.7199C9.351 13.0899 9.43596 12.4558 9.65317 11.862C9.87038 11.2682 10.2146 10.729 10.6618 10.282C11.109 9.83501 11.6483 9.49102 12.2422 9.27407C12.8361 9.05711 13.4702 8.97241 14.1002 9.02589L14.0812 9.00789C14.8344 9.07846 15.5911 8.91497 16.248 8.53973C16.9049 8.1645 17.43 7.59577 17.7519 6.91112C18.0737 6.22646 18.1765 5.45921 18.0463 4.71398C17.9161 3.96875 17.5591 3.28183 17.0242 2.74689C16.4893 2.21195 15.8023 1.85503 15.0571 1.72481C14.3119 1.59458 13.5446 1.6974 12.86 2.01922C12.1753 2.34104 11.6066 2.86621 11.2314 3.52311C10.8561 4.18001 10.6926 4.93667 10.7632 5.68989L10.7452 5.67189C10.7984 6.30174 10.7134 6.93561 10.4963 7.52925C10.2792 8.12289 9.93523 8.662 9.48827 9.10896C9.04132 9.55592 8.5022 9.89995 7.90856 10.117C7.31492 10.3341 6.68106 10.4191 6.05121 10.3659L6.06921 10.3839C5.45378 10.3287 4.83437 10.4298 4.26839 10.6777C3.70241 10.9256 3.20816 11.3124 2.83145 11.8022C2.45474 12.2919 2.20776 12.8689 2.11338 13.4795C2.01901 14.0902 2.0803 14.7148 2.29157 15.2954C2.50284 15.8761 2.85727 16.394 3.322 16.8012C3.78673 17.2085 4.34673 17.4918 4.95011 17.625C5.55348 17.7581 6.18071 17.7368 6.77368 17.5631C7.36664 17.3893 7.90614 17.0687 8.3422 16.6309H8.34021Z" fill="#212121" fill-opacity="0.8"/>
<path d="M39.3203 6.6543H42.2903V21.1073H39.3203V6.6543Z" fill="#212121" fill-opacity="0.8"/>
<path d="M43.9611 16.1606C43.957 15.122 44.2612 14.1054 44.8352 13.2398C45.4092 12.3742 46.2272 11.6984 47.1856 11.2981C48.144 10.8977 49.1996 10.7908 50.2188 10.9909C51.238 11.191 52.1749 11.689 52.9108 12.422C53.6467 13.1549 54.1485 14.0898 54.3527 15.1082C54.5569 16.1266 54.4542 17.1827 54.0577 18.1427C53.6612 19.1026 52.9887 19.9234 52.1254 20.5008C51.262 21.0783 50.2468 21.3866 49.2081 21.3866C48.5187 21.3945 47.8346 21.2648 47.1958 21.0052C46.557 20.7456 45.9764 20.3613 45.4879 19.8748C44.9993 19.3882 44.6127 18.8091 44.3506 18.1714C44.0884 17.5337 43.956 16.8501 43.9611 16.1606ZM51.4851 16.1606C51.4727 15.7129 51.3286 15.2788 51.0709 14.9125C50.8131 14.5463 50.4531 14.2641 50.0359 14.1014C49.6186 13.9386 49.1627 13.9024 48.725 13.9974C48.2873 14.0924 47.8873 14.3142 47.575 14.6353C47.2628 14.9563 47.052 15.3623 46.9693 15.8025C46.8865 16.2426 46.9352 16.6974 47.1095 17.11C47.2838 17.5226 47.5758 17.8746 47.949 18.1221C48.3223 18.3696 48.7603 18.5016 49.2081 18.5016C49.5148 18.5098 49.8199 18.4543 50.1042 18.3387C50.3884 18.2231 50.6456 18.0499 50.8595 17.83C51.0734 17.61 51.2395 17.3481 51.3471 17.0608C51.4548 16.7735 51.5018 16.467 51.4851 16.1606Z" fill="#212121" fill-opacity="0.8"/>
<path d="M66.3028 11.2108V20.6108C66.3028 23.9368 63.7088 25.3428 61.0758 25.3428C60.1488 25.4122 59.2205 25.2249 58.3928 24.8016C57.5652 24.3782 56.8701 23.7351 56.3838 22.9428L58.9178 21.4778C59.1222 21.8908 59.4479 22.2315 59.8512 22.4544C60.2546 22.6772 60.7164 22.7716 61.1748 22.7248C61.4678 22.7654 61.7662 22.7396 62.0479 22.6493C62.3295 22.559 62.5873 22.4065 62.8021 22.2032C63.0169 21.9998 63.1832 21.7508 63.2888 21.4744C63.3943 21.1981 63.4363 20.9016 63.4118 20.6068V19.7018C63.064 20.1273 62.6214 20.4654 62.1193 20.6889C61.6172 20.9124 61.0698 21.0151 60.5208 20.9888C59.2146 20.9476 57.9757 20.3998 57.0663 19.4612C56.1569 18.5227 55.6484 17.2671 55.6484 15.9603C55.6484 14.6535 56.1569 13.3979 57.0663 12.4594C57.9757 11.5208 59.2146 10.973 60.5208 10.9318C61.0698 10.9055 61.6172 11.0082 62.1193 11.2317C62.6214 11.4552 63.064 11.7933 63.4118 12.2188V11.2088L66.3028 11.2108ZM63.4128 15.9618C63.4328 15.4832 63.309 15.0095 63.0575 14.6018C62.806 14.194 62.4382 13.8709 62.0015 13.674C61.5648 13.477 61.0792 13.4153 60.6071 13.4967C60.135 13.5781 59.6981 13.7989 59.3525 14.1308C59.007 14.4626 58.7687 14.8902 58.6682 15.3586C58.5678 15.827 58.6098 16.3148 58.789 16.7591C58.9681 17.2034 59.2761 17.584 59.6733 17.8518C60.0705 18.1196 60.5388 18.2624 61.0178 18.2618C61.3299 18.2836 61.643 18.2398 61.9371 18.1332C62.2312 18.0266 62.4997 17.8595 62.7253 17.6429C62.9509 17.4262 63.1287 17.1647 63.2471 16.8751C63.3655 16.5856 63.422 16.2745 63.4128 15.9618Z" fill="#212121" fill-opacity="0.8"/>
<path d="M67.9845 16.1606C67.9804 15.122 68.2845 14.1054 68.8586 13.2398C69.4326 12.3742 70.2506 11.6984 71.209 11.2981C72.1674 10.8977 73.223 10.7908 74.2422 10.9909C75.2614 11.191 76.1983 11.689 76.9342 12.422C77.6701 13.1549 78.1719 14.0898 78.3761 15.1082C78.5803 16.1266 78.4776 17.1827 78.0811 18.1427C77.6846 19.1026 77.0121 19.9234 76.1488 20.5008C75.2854 21.0783 74.2702 21.3866 73.2315 21.3866C72.5421 21.3945 71.8579 21.2648 71.2192 21.0052C70.5804 20.7456 69.9998 20.3613 69.5113 19.8748C69.0227 19.3882 68.6361 18.8091 68.374 18.1714C68.1118 17.5337 67.9794 16.8501 67.9845 16.1606ZM75.5085 16.1606C75.4961 15.7129 75.352 15.2788 75.0943 14.9125C74.8365 14.5463 74.4765 14.2641 74.0593 14.1014C73.642 13.9386 73.186 13.9024 72.7484 13.9974C72.3107 14.0924 71.9107 14.3142 71.5984 14.6353C71.2862 14.9563 71.0754 15.3623 70.9926 15.8025C70.9098 16.2426 70.9586 16.6974 71.1329 17.11C71.3072 17.5226 71.5992 17.8746 71.9724 18.1221C72.3457 18.3696 72.7836 18.5016 73.2315 18.5016C73.5382 18.5098 73.8433 18.4543 74.1275 18.3387C74.4118 18.2231 74.669 18.0499 74.8829 17.83C75.0968 17.61 75.2629 17.3481 75.3705 17.0608C75.4782 16.7735 75.5252 16.467 75.5085 16.1606Z" fill="#212121" fill-opacity="0.8"/>
<path d="M79.8672 8.55739C79.8672 8.20494 79.9717 7.86041 80.1675 7.56737C80.3633 7.27432 80.6417 7.04591 80.9673 6.91104C81.2929 6.77616 81.6512 6.74087 81.9969 6.80963C82.3425 6.87839 82.6601 7.04811 82.9093 7.29733C83.1585 7.54654 83.3282 7.86406 83.397 8.20974C83.4657 8.55541 83.4304 8.91371 83.2956 9.23933C83.1607 9.56495 82.9323 9.84326 82.6392 10.0391C82.3462 10.2349 82.0017 10.3394 81.6492 10.3394C81.1781 10.3347 80.7275 10.1455 80.3943 9.81227C80.0612 9.47909 79.8719 9.02855 79.8672 8.55739ZM80.1672 11.2104H83.1382V21.1104H80.1632L80.1672 11.2104Z" fill="#212121" fill-opacity="0.8"/>
<path d="M95.9557 16.1602C95.99 16.8145 95.8947 17.4691 95.6751 18.0864C95.4556 18.7037 95.1162 19.2715 94.6764 19.7572C94.2367 20.2428 93.7052 20.6368 93.1127 20.9164C92.5201 21.1959 91.8782 21.3556 91.2237 21.3862C90.6733 21.4162 90.1232 21.3234 89.6131 21.1145C89.103 20.9055 88.6459 20.5857 88.2747 20.1782V25.0692H85.3047V11.2102H88.2747V12.1402C88.646 11.733 89.1033 11.4134 89.6133 11.2047C90.1234 10.9959 90.6734 10.9032 91.2237 10.9332C91.8783 10.9637 92.5204 11.1233 93.1131 11.4029C93.7058 11.6825 94.2373 12.0765 94.6771 12.5623C95.1169 13.0481 95.4563 13.6161 95.6757 14.2336C95.8951 14.851 95.9903 15.5058 95.9557 16.1602ZM92.9857 16.1602C92.9741 15.6969 92.8261 15.2473 92.5602 14.8676C92.2943 14.488 91.9224 14.1952 91.491 14.026C91.0595 13.8567 90.5877 13.8184 90.1346 13.916C89.6815 14.0135 89.2673 14.2425 88.9437 14.5743C88.6201 14.9062 88.4016 15.326 88.3155 15.7815C88.2294 16.2369 88.2795 16.7075 88.4596 17.1346C88.6396 17.5617 88.9417 17.9261 89.3279 18.1824C89.7141 18.4386 90.1672 18.5753 90.6307 18.5752C90.9489 18.5894 91.2665 18.5361 91.5627 18.4189C91.8588 18.3018 92.1269 18.1233 92.3492 17.8953C92.5716 17.6672 92.7432 17.3948 92.8529 17.0958C92.9626 16.7968 93.0079 16.4779 92.9857 16.1602Z" fill="#212121" fill-opacity="0.8"/>
<path d="M105.116 18.1379C105.116 20.4149 103.137 21.3849 100.999 21.3849C100.135 21.4631 99.2679 21.2805 98.509 20.8604C97.7501 20.4404 97.1347 19.8024 96.7422 19.0289L99.3152 17.5639C99.4193 17.9214 99.6429 18.2325 99.9486 18.445C100.254 18.6576 100.624 18.7589 100.995 18.7319C101.707 18.7319 102.064 18.5139 102.064 18.1189C102.064 17.0289 97.1932 17.6039 97.1932 14.1789C97.1932 12.0199 99.0152 10.9319 101.074 10.9319C101.848 10.9074 102.614 11.091 103.293 11.4635C103.972 11.8361 104.539 12.3839 104.934 13.0499L102.4 14.4159C102.289 14.1566 102.104 13.9357 101.868 13.7808C101.632 13.6259 101.356 13.5439 101.074 13.5449C100.559 13.5449 100.242 13.7449 100.242 14.0989C100.246 15.2279 105.116 14.4749 105.116 18.1379Z" fill="#212121" fill-opacity="0.8"/>
<path d="M115.977 11.209V21.109H113.007V20.178C112.664 20.5888 112.229 20.9125 111.737 21.1225C111.245 21.3325 110.711 21.4228 110.177 21.386C108.177 21.386 106.477 19.961 106.477 17.286V11.209H109.447V16.851C109.422 17.0868 109.449 17.3252 109.526 17.5495C109.602 17.7739 109.727 17.9789 109.891 18.1502C110.055 18.3215 110.254 18.455 110.475 18.5415C110.695 18.628 110.932 18.6654 111.169 18.651C112.258 18.651 113.01 18.018 113.01 16.612V11.212L115.977 11.209Z" fill="#212121" fill-opacity="0.8"/>
<path d="M132.997 15.0288V21.1068H130.027V15.2858C130.027 14.2958 129.552 13.6628 128.602 13.6628C127.612 13.6628 127.057 14.3558 127.057 15.5238V21.1068H124.088V15.2858C124.088 14.2958 123.613 13.6628 122.662 13.6628C121.672 13.6628 121.118 14.3558 121.118 15.5238V21.1068H118.148V11.2068H121.118V12.1168C121.426 11.7131 121.83 11.3929 122.293 11.1856C122.757 10.9782 123.265 10.8903 123.771 10.9298C124.279 10.9049 124.785 11.0122 125.24 11.2411C125.694 11.4699 126.081 11.8127 126.364 12.2358C126.693 11.7931 127.129 11.4411 127.631 11.2127C128.133 10.9843 128.685 10.887 129.235 10.9298C131.508 10.9308 132.997 12.5538 132.997 15.0288Z" fill="#212121" fill-opacity="0.8"/>
<path d="M135.516 11.1482C136.733 11.1482 137.721 10.1614 137.721 8.94423C137.721 7.72699 136.733 6.74023 135.516 6.74023C134.299 6.74023 133.312 7.72699 133.312 8.94423C133.312 10.1614 134.299 11.1482 135.516 11.1482Z" fill="#212121" fill-opacity="0.8"/>
</svg>
