<svg width="152" height="35" viewBox="0 0 152 35" fill="none" xmlns="http://www.w3.org/2000/svg">
<g clip-path="url(#clip0_446_27293)">
<path fill-rule="evenodd" clip-rule="evenodd" d="M12.9545 24.1818C11.8093 24.1818 10.7109 23.7269 9.90112 22.9171C9.09131 22.1072 8.63636 21.0089 8.63636 19.8636V0H0V19.8636C0 27.018 5.80018 32.8182 12.9545 32.8182H22.4545V24.1818H12.9545ZM38.8636 8.63636C37.8429 8.63636 36.8321 8.83741 35.8891 9.22803C34.9461 9.61864 34.0892 10.1912 33.3675 10.9129C32.6457 11.6347 32.0732 12.4916 31.6826 13.4346C31.2919 14.3776 31.0909 15.3884 31.0909 16.4091C31.0909 17.4298 31.2919 18.4406 31.6826 19.3836C32.0732 20.3266 32.6457 21.1835 33.3675 21.9052C34.0892 22.627 34.9461 23.1995 35.8891 23.5902C36.8321 23.9808 37.8429 24.1818 38.8636 24.1818C40.9251 24.1818 42.9021 23.3629 44.3598 21.9052C45.8174 20.4476 46.6363 18.4705 46.6363 16.4091C46.6363 14.3476 45.8174 12.3706 44.3598 10.9129C42.9021 9.45527 40.9251 8.63636 38.8636 8.63636ZM22.4545 16.4091C22.4545 7.34695 29.8015 0 38.8636 0C47.9257 0 55.2727 7.34695 55.2727 16.4091C55.2727 25.4712 47.9257 32.8182 38.8636 32.8182C29.8015 32.8182 22.4545 25.4712 22.4545 16.4091ZM132.136 8.63636C130.075 8.63636 128.098 9.45527 126.64 10.9129C125.182 12.3706 124.364 14.3476 124.364 16.4091C124.364 18.4705 125.182 20.4476 126.64 21.9052C128.098 23.3629 130.075 24.1818 132.136 24.1818C134.198 24.1818 136.175 23.3629 137.632 21.9052C139.09 20.4476 139.909 18.4705 139.909 16.4091C139.909 14.3476 139.09 12.3706 137.632 10.9129C136.175 9.45527 134.198 8.63636 132.136 8.63636ZM115.727 16.4091C115.727 7.34695 123.074 0 132.136 0C141.198 0 148.545 7.34695 148.545 16.4091C148.545 25.4712 141.198 32.8182 132.136 32.8182C123.074 32.8182 115.727 25.4712 115.727 16.4091ZM73.409 0C64.3469 0 57 7.34695 57 16.4091C57 25.4712 64.3469 32.8182 73.409 32.8182H97.5908C99.2913 32.8182 100.931 32.5591 102.474 32.0789L107.091 34.5455L112.072 25.2147C113.338 22.8394 114 20.1895 114 17.4981V16.4091C114 7.34695 106.653 0 97.5908 0H73.409ZM105.364 16.4091C105.364 14.3476 104.545 12.3706 103.087 10.9129C101.629 9.45527 99.6523 8.63636 97.5908 8.63636H73.409C72.3883 8.63636 71.3776 8.83741 70.4345 9.22803C69.4915 9.61864 68.6347 10.1912 67.9129 10.9129C67.1911 11.6347 66.6186 12.4916 66.228 13.4346C65.8374 14.3776 65.6363 15.3884 65.6363 16.4091C65.6363 17.4298 65.8374 18.4406 66.228 19.3836C66.6186 20.3266 67.1911 21.1835 67.9129 21.9052C68.6347 22.627 69.4915 23.1995 70.4345 23.5902C71.3776 23.9808 72.3883 24.1818 73.409 24.1818H97.5908C99.6419 24.1819 101.61 23.3713 103.066 21.9267C104.522 20.482 105.348 18.5205 105.364 16.4695V16.4091Z" fill="#212121" fill-opacity="0.8"/>
<path d="M152.006 2.15909C152.006 2.73172 151.778 3.28089 151.373 3.6858C150.968 4.09071 150.419 4.31818 149.847 4.31818C149.274 4.31818 148.725 4.09071 148.32 3.6858C147.915 3.28089 147.688 2.73172 147.688 2.15909C147.688 1.58646 147.915 1.03729 148.32 0.632383C148.725 0.227475 149.274 0 149.847 0C150.419 0 150.968 0.227475 151.373 0.632383C151.778 1.03729 152.006 1.58646 152.006 2.15909Z" fill="#212121" fill-opacity="0.8"/>
</g>
<defs>
<clipPath id="clip0_446_27293">
<rect width="152" height="34.5455" fill="white"/>
</clipPath>
</defs>
</svg>
