<svg width="114" height="26" viewBox="0 0 114 26" fill="none" xmlns="http://www.w3.org/2000/svg">
<path d="M0 25.65H25.65V3.59951e-08H0V25.65ZM20.713 10.357H15.293V4.937H20.713V10.357ZM4.936 4.937H10.359V15.293H20.713V20.713H4.936V4.937ZM42.353 3.59951e-08C39.8164 3.59951e-08 37.3368 0.75218 35.2278 2.16141C33.1187 3.57064 31.4749 5.57363 30.5042 7.9171C29.5335 10.2606 29.2796 12.8392 29.7744 15.327C30.2693 17.8148 31.4907 20.1 33.2843 21.8936C35.0779 23.6873 37.3631 24.9087 39.8509 25.4036C42.3388 25.8984 44.9174 25.6445 47.2609 24.6738C49.6044 23.7031 51.6073 22.0593 53.0166 19.9502C54.4258 17.8411 55.178 15.3615 55.178 12.825C55.174 9.4248 53.8215 6.16504 51.4172 3.76075C49.0129 1.35645 45.7532 0.00397004 42.353 3.59951e-08ZM42.353 20.713C40.7929 20.713 39.2678 20.2504 37.9706 19.3836C36.6735 18.5169 35.6624 17.285 35.0654 15.8436C34.4684 14.4023 34.3122 12.8163 34.6165 11.2861C34.9209 9.756 35.6722 8.3505 36.7753 7.24734C37.8785 6.14419 39.284 5.39293 40.8141 5.08857C42.3442 4.78421 43.9302 4.94042 45.3716 5.53744C46.8129 6.13446 48.0449 7.14549 48.9116 8.4427C49.7784 9.7398 50.241 11.2649 50.241 12.825C50.2378 14.9161 49.4057 16.9206 47.9271 18.3992C46.4485 19.8778 44.444 20.7098 42.353 20.713ZM101.072 3.59951e-08C98.535 -0.000189964 96.0557 0.75181 93.9465 2.16092C91.8373 3.57003 90.1934 5.57295 89.2225 7.9164C88.2517 10.2598 87.9975 12.8386 88.4923 15.3264C88.987 17.8143 90.2084 20.0996 92.002 21.8933C93.7955 23.687 96.0807 24.9086 98.569 25.4035C101.056 25.8984 103.635 25.6445 105.979 24.6739C108.322 23.7032 110.325 22.0594 111.734 19.9503C113.144 17.8412 113.896 15.3616 113.896 12.825C113.892 9.425 112.54 6.16536 110.136 3.7611C107.732 1.35683 104.472 0.00424004 101.072 3.59951e-08ZM101.072 20.713C99.512 20.7132 97.987 20.2507 96.6894 19.3841C95.3921 18.5175 94.3809 17.2856 93.7837 15.8443C93.1865 14.403 93.0302 12.8169 93.3344 11.2867C93.6387 9.7566 94.3899 8.351 95.493 7.2477C96.5961 6.14444 98.002 5.39308 99.532 5.08864C101.062 4.7842 102.648 4.94035 104.089 5.53735C105.531 6.13434 106.763 7.14536 107.63 8.4426C108.496 9.7398 108.959 11.2649 108.959 12.825C108.956 14.9159 108.124 16.9202 106.645 18.3988C105.167 19.8774 103.163 20.7096 101.072 20.713ZM71.712 3.59951e-08C69.1754 3.59951e-08 66.6958 0.75218 64.5868 2.16141C62.4777 3.57064 60.8339 5.57363 59.8632 7.9171C58.8925 10.2606 58.6386 12.8392 59.1334 15.327C59.6283 17.8148 60.8497 20.1 62.6433 21.8936C64.4369 23.6873 66.7221 24.9087 69.2099 25.4036C71.6977 25.8984 74.2764 25.6445 76.6199 24.6738C78.9634 23.7031 80.9663 22.0593 82.3756 19.9502C83.7848 17.8411 84.537 15.3615 84.537 12.825C84.533 9.4248 83.1805 6.16504 80.7762 3.76075C78.3719 1.35645 75.1122 0.00397004 71.712 3.59951e-08ZM71.712 20.713C70.2584 20.7137 68.833 20.3128 67.5929 19.5545C66.3529 18.7962 65.3464 17.7101 64.6847 16.4159C64.0231 15.1217 63.7318 13.6698 63.8432 12.2206C63.9546 10.7713 64.4642 9.381 65.3159 8.2031C66.1676 7.02526 67.3282 6.10561 68.6695 5.54571C70.0109 4.9858 71.4809 4.80742 72.9172 5.03024C74.3536 5.25307 75.7004 5.86843 76.8091 6.80842C77.9178 7.7484 78.7452 8.9765 79.2 10.357H71.712V15.293H79.2C78.6791 16.8683 77.6755 18.2397 76.3314 19.2125C74.9874 20.1854 73.3712 20.7103 71.712 20.713Z" fill="#212121" fill-opacity="0.8"/>
</svg>
