<svg width="100" height="51" viewBox="0 0 100 51" fill="none" xmlns="http://www.w3.org/2000/svg">
<path d="M2.57812 29.5176H5.41104V43.4083H2.57812V29.5176Z" fill="#212121" fill-opacity="0.8"/>
<path d="M7.06273 38.6497C7.06086 37.652 7.35501 36.6761 7.90796 35.8456C8.46091 35.0151 9.2478 34.3673 10.1691 33.9842C11.0903 33.6011 12.1045 33.4999 13.0833 33.6934C14.0621 33.8869 14.9615 34.3664 15.6676 35.0713C16.3738 35.7761 16.855 36.6746 17.0503 37.653C17.2457 38.6314 17.1464 39.6458 16.765 40.5678C16.3836 41.4897 15.7373 42.2778 14.9078 42.8323C14.0784 43.3869 13.1031 43.6828 12.1054 43.6828C11.4418 43.6904 10.7835 43.5655 10.1689 43.3153C9.55428 43.0652 8.99579 42.6949 8.52615 42.2261C8.05651 41.7574 7.68516 41.1996 7.43387 40.5854C7.18258 39.9713 7.0564 39.3132 7.06273 38.6497ZM14.2961 38.6497C14.285 38.219 14.1471 37.8011 13.8997 37.4484C13.6523 37.0956 13.3064 36.8237 12.9052 36.6665C12.504 36.5093 12.0654 36.474 11.6443 36.5648C11.2231 36.6556 10.8381 36.8686 10.5373 37.1771C10.2366 37.4856 10.0335 37.876 9.9534 38.2994C9.87335 38.7227 9.91993 39.1603 10.0873 39.5573C10.2547 39.9543 10.5354 40.2932 10.8943 40.5315C11.2533 40.7698 11.6745 40.897 12.1054 40.8971C12.4001 40.9054 12.6934 40.8525 12.9667 40.7417C13.24 40.6309 13.4874 40.4647 13.6933 40.2535C13.8991 40.0423 14.059 39.7908 14.1627 39.5148C14.2665 39.2387 14.3119 38.9442 14.2961 38.6497Z" fill="#212121" fill-opacity="0.8"/>
<path d="M28.5296 33.889V42.9354C28.5296 46.1366 26.0272 47.487 23.4965 47.487C22.6066 47.5532 21.7156 47.3732 20.9211 46.9668C20.1266 46.5604 19.4593 45.9432 18.9922 45.1829L21.4285 43.7759C21.6218 44.1655 21.9277 44.4882 22.3065 44.702C22.6853 44.9158 23.1196 45.011 23.5532 44.9751C23.8384 45.0227 24.1308 45.0041 24.4078 44.9207C24.6848 44.8374 24.9389 44.6916 25.1506 44.4945C25.3622 44.2974 25.5258 44.0543 25.6287 43.784C25.7316 43.5137 25.771 43.2234 25.7439 42.9354V42.0572C25.4109 42.467 24.9859 42.7925 24.5036 43.0074C24.0213 43.2223 23.4951 43.3206 22.9677 43.2943C21.6854 43.2943 20.4557 42.7849 19.5489 41.8782C18.6422 40.9715 18.1328 39.7417 18.1328 38.4594C18.1328 37.1771 18.6422 35.9474 19.5489 35.0407C20.4557 34.134 21.6854 33.6246 22.9677 33.6246C23.4948 33.6005 24.0202 33.6998 24.5022 33.9145C24.9842 34.1293 25.4094 34.4536 25.7439 34.8616V33.9173L28.5296 33.889ZM25.7439 38.4594C25.7628 38.0002 25.6438 37.5458 25.4024 37.1546C25.1609 36.7635 24.808 36.4535 24.389 36.2646C23.97 36.0756 23.504 36.0163 23.051 36.0943C22.598 36.1722 22.1787 36.3839 21.847 36.702C21.5152 37.0202 21.2862 37.4303 21.1894 37.8796C21.0925 38.3289 21.1323 38.797 21.3036 39.2235C21.4749 39.6501 21.7698 40.0156 22.1505 40.2732C22.5312 40.5309 22.9802 40.6687 23.4398 40.6691C23.7399 40.6903 24.041 40.6485 24.3238 40.5462C24.6067 40.4439 24.865 40.2836 25.0821 40.0754C25.2991 39.8672 25.4702 39.6158 25.5842 39.3375C25.6982 39.0592 25.7526 38.7601 25.7439 38.4594Z" fill="#212121" fill-opacity="0.8"/>
<path d="M30.1643 38.6497C30.1624 37.652 30.4566 36.6761 31.0095 35.8456C31.5625 35.0151 32.3494 34.3673 33.2706 33.9842C34.1918 33.6011 35.206 33.4999 36.1848 33.6934C37.1636 33.8869 38.063 34.3664 38.7692 35.0713C39.4753 35.7761 39.9565 36.6746 40.1519 37.653C40.3472 38.6314 40.2479 39.6458 39.8665 40.5678C39.4851 41.4897 38.8388 42.2778 38.0094 42.8323C37.1799 43.3869 36.2046 43.6828 35.2069 43.6828C34.5434 43.6904 33.885 43.5655 33.2704 43.3153C32.6558 43.0652 32.0973 42.6949 31.6277 42.2261C31.1581 41.7574 30.7867 41.1996 30.5354 40.5854C30.2841 39.9713 30.1579 39.3132 30.1643 38.6497ZM37.3977 38.6497C37.3865 38.219 37.2486 37.8011 37.0012 37.4484C36.7538 37.0956 36.4079 36.8237 36.0067 36.6665C35.6056 36.5093 35.167 36.474 34.7458 36.5648C34.3246 36.6556 33.9396 36.8686 33.6388 37.1771C33.3381 37.4856 33.135 37.876 33.0549 38.2994C32.9749 38.7227 33.0215 39.1603 33.1888 39.5573C33.3562 39.9543 33.6369 40.2932 33.9958 40.5315C34.3548 40.7698 34.776 40.897 35.2069 40.8971C35.5001 40.9027 35.7913 40.8479 36.0624 40.7359C36.3334 40.6239 36.5785 40.4573 36.7823 40.2464C36.9861 40.0356 37.1442 39.7849 37.2469 39.5102C37.3495 39.2355 37.3944 38.9425 37.3788 38.6497H37.3977Z" fill="#212121" fill-opacity="0.8"/>
<path d="M41.5625 31.3397C41.5625 30.9998 41.6633 30.6675 41.8521 30.3849C42.041 30.1023 42.3094 29.882 42.6234 29.7519C42.9375 29.6218 43.283 29.5878 43.6164 29.6541C43.9498 29.7204 44.256 29.8841 44.4964 30.1244C44.7368 30.3648 44.9004 30.671 44.9667 31.0044C45.0331 31.3378 44.999 31.6834 44.869 31.9974C44.7389 32.3114 44.5186 32.5799 44.236 32.7687C43.9533 32.9575 43.6211 33.0583 43.2811 33.0583C42.8261 33.0559 42.3904 32.874 42.0686 32.5522C41.7468 32.2305 41.565 31.7948 41.5625 31.3397ZM41.8552 33.8893H44.6881V43.4079H41.8552V33.8893Z" fill="#212121" fill-opacity="0.8"/>
<path d="M57.0516 38.6489C57.0859 39.2781 56.9955 39.9079 56.7855 40.502C56.5754 41.0961 56.2501 41.6428 55.8279 42.1106C55.4057 42.5784 54.8951 42.9581 54.3256 43.2278C53.7561 43.4975 53.1389 43.6519 52.5095 43.6821C51.9811 43.7074 51.4535 43.6166 50.9641 43.4159C50.4746 43.2152 50.0351 42.9096 49.6766 42.5206V47.2421H46.8438V33.8896H49.6766V34.7867C50.0351 34.3977 50.4746 34.0921 50.9641 33.8914C51.4535 33.6907 51.9811 33.5999 52.5095 33.6252C53.1381 33.6554 53.7545 33.8095 54.3233 34.0786C54.8922 34.3478 55.4023 34.7266 55.8243 35.1934C56.2464 35.6602 56.5721 36.2057 56.7826 36.7987C56.9934 37.3917 57.0847 38.0205 57.0516 38.6489ZM54.2188 38.6489C54.2076 38.2057 54.0665 37.7755 53.8132 37.4116C53.5599 37.0478 53.2056 36.7661 52.7938 36.6017C52.3821 36.4372 51.9311 36.3971 51.4969 36.4864C51.0626 36.5756 50.664 36.7903 50.3505 37.1038C50.037 37.4173 49.8225 37.8158 49.7332 38.2501C49.644 38.6844 49.684 39.1353 49.8484 39.547C50.0129 39.9587 50.2945 40.3132 50.6584 40.5664C51.0223 40.8197 51.4525 40.9607 51.8957 40.9719C52.205 40.9916 52.5149 40.9448 52.8047 40.8348C53.0944 40.7247 53.3573 40.5539 53.5756 40.3339C53.7938 40.1138 53.9624 39.8496 54.0701 39.559C54.1777 39.2684 54.222 38.9581 54.1998 38.6489H54.2188Z" fill="#212121" fill-opacity="0.8"/>
<path d="M65.8596 40.5565C65.8596 42.7473 63.971 43.6821 61.8935 43.6821C61.0636 43.7556 60.2307 43.579 59.502 43.1751C58.7734 42.7712 58.1822 42.1585 57.8047 41.4158L60.2788 40.0088C60.3792 40.3523 60.5942 40.6511 60.8879 40.8555C61.1817 41.0599 61.5365 41.1577 61.8935 41.1325C62.5829 41.1325 62.9228 40.9153 62.9228 40.5376C62.9228 39.4894 58.2013 40.0466 58.2013 36.7604C58.2013 34.6829 59.9577 33.6347 61.9785 33.6347C62.7242 33.6121 63.4624 33.7892 64.1166 34.1479C64.7708 34.5065 65.3171 35.0336 65.6991 35.6744L63.2156 36.9776C63.1059 36.7282 62.9261 36.516 62.6981 36.3668C62.4701 36.2176 62.2038 36.1378 61.9313 36.1371C61.4403 36.1371 61.1381 36.326 61.1381 36.6754C61.1759 37.7613 65.8596 37.0342 65.8596 40.5565Z" fill="#212121" fill-opacity="0.8"/>
<path d="M76.2845 33.8887V43.4073H73.4515V42.5197C73.122 42.9141 72.7038 43.2249 72.2311 43.4268C71.7585 43.6287 71.2447 43.7158 70.7319 43.6812C68.8433 43.6812 67.1719 42.3119 67.1719 39.734V33.8887H70.0048V39.3185C69.9799 39.5499 70.0069 39.7839 70.0837 40.0036C70.1605 40.2233 70.2852 40.4231 70.4489 40.5886C70.6125 40.7541 70.811 40.881 71.0298 40.9602C71.2486 41.0395 71.4824 41.0689 71.714 41.0466C72.7528 41.0466 73.4799 40.4422 73.4799 39.0919V33.8887H76.2845Z" fill="#212121" fill-opacity="0.8"/>
<path d="M92.6649 37.5716V43.4074H89.8319V37.8172C89.8319 36.8729 89.3692 36.2496 88.4627 36.2496C87.5562 36.2496 86.9707 36.9201 86.9707 38.0438V43.4074H84.1378V37.8172C84.1378 36.8729 83.6845 36.2496 82.7685 36.2496C81.8526 36.2496 81.286 36.9201 81.286 38.0438V43.4074H78.4531V33.8889H81.286V34.7671C81.5821 34.3792 81.9704 34.0715 82.4157 33.872C82.861 33.6724 83.3491 33.5873 83.8356 33.6245C84.3242 33.6007 84.8107 33.704 85.2475 33.924C85.6844 34.1441 86.0568 34.4736 86.3286 34.8804C86.6446 34.4551 87.0633 34.1168 87.5455 33.8972C88.0277 33.6776 88.5577 33.5837 89.0859 33.6245C91.239 33.6245 92.6649 35.192 92.6649 37.5716Z" fill="#212121" fill-opacity="0.8"/>
<path d="M95.0684 33.8321C96.2366 33.8321 97.1836 32.885 97.1836 31.7168C97.1836 30.5486 96.2366 29.6016 95.0684 29.6016C93.9002 29.6016 92.9531 30.5486 92.9531 31.7168C92.9531 32.885 93.9002 33.8321 95.0684 33.8321Z" fill="#212121" fill-opacity="0.8"/>
<path d="M34.6402 22.3115C40.111 22.3115 44.5459 17.8765 44.5459 12.4057C44.5459 6.93496 40.111 2.5 34.6402 2.5C29.1694 2.5 24.7344 6.93496 24.7344 12.4057C24.7344 17.8765 29.1694 22.3115 34.6402 22.3115Z" fill="#212121" fill-opacity="0.8"/>
<path d="M56.7886 22.3115C62.2594 22.3115 66.6943 17.8765 66.6943 12.4057C66.6943 6.93496 62.2594 2.5 56.7886 2.5C51.3178 2.5 46.8828 6.93496 46.8828 12.4057C46.8828 17.8765 51.3178 22.3115 56.7886 22.3115Z" fill="#212121" fill-opacity="0.8"/>
<path d="M22.3958 2.5H2.59375V22.302H22.3958V2.5Z" fill="#212121" fill-opacity="0.8"/>
</svg>
