<svg width="16" height="16" viewBox="0 0 16 16" fill="none" xmlns="http://www.w3.org/2000/svg">
<path d="M13.3346 4.66406H7.33464M9.33464 11.3307H3.33464M9.33464 11.3307C9.33464 12.4353 10.2301 13.3307 11.3346 13.3307C12.4392 13.3307 13.3346 12.4353 13.3346 11.3307C13.3346 10.2262 12.4392 9.33073 11.3346 9.33073C10.2301 9.33073 9.33464 10.2262 9.33464 11.3307ZM6.66797 4.66406C6.66797 5.76863 5.77254 6.66406 4.66797 6.66406C3.5634 6.66406 2.66797 5.76863 2.66797 4.66406C2.66797 3.55949 3.5634 2.66406 4.66797 2.66406C5.77254 2.66406 6.66797 3.55949 6.66797 4.66406Z" stroke="#444444" stroke-width="1.33" stroke-linecap="round" stroke-linejoin="round"/>
</svg>
